<svg width="50" height="50" viewBox="0 0 50 50" fill="none" xmlns="http://www.w3.org/2000/svg">
<g clip-path="url(#clip0_2062_8691)">
<path d="M49.6664 21.0766L44.682 11.104C44.4984 10.7369 44.2442 10.4096 43.9341 10.1408C43.624 9.87195 43.264 9.66684 42.8746 9.53716C42.4852 9.40748 42.074 9.35578 41.6646 9.38501C41.2553 9.41423 40.8556 9.52381 40.4886 9.70749L35.6312 12.1352L25.3988 9.4282C25.1362 9.35987 24.8606 9.35987 24.598 9.4282L14.3656 12.1352L9.50815 9.70749C9.14113 9.52381 8.74151 9.41423 8.33213 9.38501C7.92275 9.35578 7.51162 9.40748 7.12222 9.53716C6.73282 9.66684 6.37278 9.87195 6.06266 10.1408C5.75254 10.4096 5.49841 10.7369 5.31479 11.104L0.33042 21.0747C0.14674 21.4417 0.0371588 21.8413 0.00793314 22.2507C-0.0212925 22.6601 0.0304103 23.0712 0.160089 23.4606C0.289767 23.85 0.494882 24.2101 0.763718 24.5202C1.03255 24.8303 1.35985 25.0844 1.7269 25.268L7.00034 27.9067L17.8382 35.6469C17.9979 35.7606 18.1774 35.8434 18.3675 35.8911L30.8675 39.0161C31.1293 39.0817 31.4036 39.0785 31.6638 39.0066C31.9239 38.9347 32.161 38.7967 32.3519 38.6059L43.1078 27.8481L48.2679 25.268C49.0087 24.8972 49.572 24.2474 49.8338 23.4614C50.0957 22.6755 50.0347 21.8177 49.6644 21.0766H49.6664ZM38.9457 27.5942L32.2249 22.2114C31.9239 21.9703 31.5442 21.8491 31.1591 21.871C30.774 21.893 30.4107 22.0567 30.139 22.3305C26.6605 25.8344 22.7835 25.3911 20.3109 23.8286L28.7562 15.6255H34.9691L40.2835 26.2524L38.9457 27.5942ZM8.10972 12.5005L12.1078 14.4966L7.11362 24.4673L3.12339 22.4731L8.10972 12.5005ZM30.766 35.768L19.4164 32.9321L9.80698 26.0688L15.2757 15.1313L24.9984 12.5551L26.9125 13.061L18.1234 21.5923L18.1078 21.6098C17.7769 21.9407 17.5246 22.3416 17.3694 22.783C17.2142 23.2244 17.1601 23.695 17.2111 24.1601C17.2621 24.6252 17.4168 25.0729 17.664 25.4702C17.9111 25.8675 18.2443 26.2042 18.639 26.4555C22.6546 29.02 27.5003 28.604 31.3167 25.479L36.7171 29.8169L30.766 35.768ZM42.8753 24.4653L37.891 14.5044L41.8871 12.5005L46.8734 22.4731L42.8753 24.4653ZM25.7367 42.5649C25.6523 42.9026 25.4575 43.2025 25.1833 43.4169C24.9091 43.6313 24.5711 43.748 24.223 43.7485C24.0946 43.7483 23.9667 43.7326 23.8421 43.7016L15.7035 41.6665C15.5131 41.6195 15.3335 41.5367 15.1742 41.4223L10.0277 37.7466C9.71124 37.4981 9.50283 37.1372 9.44586 36.7389C9.38888 36.3406 9.48773 35.9357 9.72181 35.6085C9.9559 35.2813 10.3072 35.057 10.7025 34.9823C11.0978 34.9076 11.5068 34.9882 11.8441 35.2075L16.7484 38.7114L24.6078 40.6723C25.0097 40.7729 25.3552 41.029 25.5684 41.3842C25.7816 41.7395 25.8449 42.1649 25.7445 42.5669L25.7367 42.5649Z" fill="#F26E21"/>
</g>
<defs>
<clipPath id="clip0_2062_8691">
<rect width="50" height="50" fill="white"/>
</clipPath>
</defs>
</svg>
