<svg width="914" height="642" viewBox="0 0 914 642" fill="none" xmlns="http://www.w3.org/2000/svg">
<path d="M656.168 87.0072C656.825 85.5579 657.567 84.1927 658.535 82.9256C672.09 65.1733 686.221 47.7301 700.037 30.1892L714.546 11.8799C716.985 8.781 721.652 2.39064 724.451 0C726.283 0.494957 734.356 11.9753 736.053 14.2188C748.415 30.3449 760.985 46.3132 773.757 62.1203C778.685 68.2398 789.521 80.9422 793.536 87.0819C782.618 86.8533 768.046 86.6873 757.38 87.3285C757.623 109.475 757.281 132.292 757.268 154.523L757.259 292.519L757.254 366.911C757.268 380.729 757.556 394.93 756.966 408.708C756.908 410.04 756.471 411.169 755.629 412.2C748.897 420.447 741.84 428.727 734.991 436.871L691.608 488.221L556.616 648.15C549.828 656.304 542.734 664.875 535.974 673.006C533.079 676.489 520.663 690.415 519.153 693.326H342.402C345.889 687.729 378.285 664.178 385.62 658.346L445.71 609.823C503.338 563.58 560.545 516.811 617.321 469.529C626.159 462.276 689.547 412.137 691.158 408.649C691.32 408.289 692.485 108.908 691.257 87.2246C679.718 86.5771 667.684 87.976 656.168 87.0072Z" fill="#FBFAFA"/>
<path d="M562.837 203.309C557.229 203.305 531.668 203.829 528.139 202.45C528.064 198.385 554.794 167.491 558.885 162.285C568.147 150.288 577.557 138.404 587.111 126.638C588.434 125.001 594.681 116.65 596.081 116.107C598.335 116.993 634.837 164.076 638.973 169.401C644.378 176.363 660.777 195.56 665.287 202.958C654.04 203.922 640.989 202.886 629.491 203.362C628.658 221.551 629.221 243.973 629.257 262.381L629.194 356.437C629.131 366.894 629.158 377.346 629.27 387.799C629.342 393.837 629.437 399.826 629.324 405.86C629.216 411.669 622.461 414.284 617.894 417.177L598.092 429.74L518.77 480.329L382.431 568.814L272.24 638.373L217.84 672.525C213.135 675.486 190.055 689.637 186.934 693.327H104.6C72.1392 693.327 79.1205 693.327 0 693.327L105.163 641.856C110.295 638.616 119.881 634.27 125.684 631.354C139.878 624.177 154.143 617.14 168.478 610.246C189.032 600.374 210.647 588.801 231.252 578.474L474.791 454.618L520.628 430.991C530.098 426.271 539.525 421.474 548.909 416.587C552.998 414.459 559.511 411.719 562.711 408.713C563.395 405.289 563.116 392.137 563.107 387.88L563.021 345.84L562.981 256.352C562.999 239.042 563.323 220.543 562.837 203.309Z" fill="#FBFAFA"/>
<path d="M844.629 218.856C847.667 221.888 850.997 226.564 853.67 230.046C857.833 235.527 862.072 240.953 866.379 246.321L892.566 279.439C899.425 288.033 906.954 296.956 913.241 305.892C907.116 305.959 882.153 305.559 878.125 306.585C876.784 310.036 877.319 324.201 877.315 328.966L877.306 382.021C877.31 391.141 877.526 400.622 877.031 409.702C876.68 416.128 874.844 423.674 873.854 430.099C870.065 454.797 865.929 479.437 861.46 504.023L842.973 613.71L834.409 663.494C833.229 670.234 832.091 676.885 831.182 683.675C830.79 686.622 829.787 690.478 829.584 693.326H657.037C658.248 688.327 666.573 674.194 669.431 669.015L692.878 626.696L787.565 452.651C791.466 445.398 811.164 412.092 811.182 408.181C811.335 376.423 812.33 337.79 811.326 306.324L810.584 306.256C803.586 305.649 782.578 306.711 777.857 305.325C777.011 302.4 786.782 291.304 788.928 288.609C792.844 283.682 796.894 278.75 800.787 273.792L826.713 240.782C831.159 235.068 839.647 223.643 844.629 218.856Z" fill="#FBFAFA"/>
</svg>
