<svg width="259" height="250" viewBox="0 0 259 250" fill="none" xmlns="http://www.w3.org/2000/svg">
<path d="M136.495 225C137.331 225 138.167 224.792 139.003 224.375C139.839 223.958 140.466 223.542 140.884 223.125L243.71 120.625C246.218 118.125 248.047 115.313 249.196 112.188C250.346 109.063 250.921 105.938 250.921 102.813C250.921 99.4792 250.346 96.3021 249.196 93.2812C248.047 90.2604 246.218 87.6042 243.71 85.3125L190.416 32.1875C188.117 29.6875 185.453 27.8646 182.422 26.7188C179.392 25.5729 176.204 25 172.861 25C169.726 25 166.591 25.5729 163.456 26.7188C160.321 27.8646 157.499 29.6875 154.991 32.1875L151.543 35.625L174.741 59.0625C177.876 61.9792 180.175 65.3125 181.638 69.0625C183.101 72.8125 183.833 76.7708 183.833 80.9375C183.833 89.6875 180.855 97.0312 174.898 102.969C168.942 108.906 161.575 111.875 152.797 111.875C148.617 111.875 144.594 111.146 140.727 109.687C136.861 108.229 133.465 106.042 130.539 103.125L107.027 80L52.1654 134.688C51.5384 135.312 51.0682 135.99 50.7547 136.719C50.4412 137.448 50.2844 138.229 50.2844 139.062C50.2844 140.729 50.9114 142.24 52.1654 143.594C53.4194 144.948 54.8823 145.625 56.5543 145.625C57.3903 145.625 58.2263 145.417 59.0622 145C59.8982 144.583 60.5252 144.167 60.9432 143.75L103.578 101.25L121.134 118.75L78.8124 161.25C78.1854 161.875 77.7151 162.552 77.4016 163.281C77.0881 164.01 76.9314 164.792 76.9314 165.625C76.9314 167.292 77.5584 168.75 78.8124 170C80.0663 171.25 81.5293 171.875 83.2013 171.875C84.0373 171.875 84.8732 171.667 85.7092 171.25C86.5452 170.833 87.1722 170.417 87.5902 170L130.225 127.813L147.781 145.312L105.459 187.812C104.832 188.229 104.362 188.854 104.049 189.688C103.735 190.521 103.578 191.354 103.578 192.188C103.578 193.854 104.205 195.312 105.459 196.562C106.713 197.812 108.176 198.438 109.848 198.438C110.684 198.438 111.468 198.281 112.199 197.969C112.931 197.656 113.61 197.188 114.237 196.562L156.872 154.375L174.428 171.875L131.793 214.375C131.166 215 130.696 215.677 130.382 216.406C130.069 217.135 129.912 217.917 129.912 218.75C129.912 220.417 130.591 221.875 131.95 223.125C133.308 224.375 134.823 225 136.495 225ZM136.182 250C128.449 250 121.604 247.448 115.648 242.344C109.692 237.24 106.191 230.833 105.146 223.125C98.04 222.083 92.0836 219.167 87.2767 214.375C82.4698 209.583 79.5438 203.646 78.4989 196.562C71.393 195.521 65.4889 192.552 60.7865 187.656C56.0841 182.76 53.2104 176.875 52.1654 170C44.2235 168.958 37.7447 165.521 32.7288 159.688C27.7129 153.854 25.2049 146.979 25.2049 139.062C25.2049 134.896 25.9886 130.885 27.5561 127.031C29.1236 123.177 31.3703 119.792 34.2962 116.875L107.027 44.6875L148.095 85.625C148.512 86.25 149.139 86.7188 149.975 87.0312C150.811 87.3438 151.647 87.5 152.483 87.5C154.364 87.5 155.932 86.9271 157.186 85.7812C158.44 84.6354 159.067 83.125 159.067 81.25C159.067 80.4167 158.91 79.5833 158.597 78.75C158.283 77.9167 157.813 77.2917 157.186 76.875L112.356 32.1875C110.057 29.6875 107.393 27.8646 104.362 26.7188C101.332 25.5729 98.1445 25 94.8005 25C91.6656 25 88.5307 25.5729 85.3957 26.7188C82.2608 27.8646 79.4393 29.6875 76.9314 32.1875L32.7288 76.5625C30.8478 78.4375 29.2803 80.625 28.0264 83.125C26.7724 85.625 25.9364 88.125 25.5184 90.625C25.1004 93.125 25.1004 95.6771 25.5184 98.2812C25.9364 100.885 26.7724 103.333 28.0264 105.625L9.84371 123.75C6.29078 118.958 3.67833 113.698 2.00636 107.969C0.334393 102.24 -0.292594 96.4583 0.125398 90.625C0.543389 84.7917 2.00636 79.1146 4.51431 73.5938C7.02226 68.0729 10.4707 63.125 14.8596 58.75L59.0622 14.6875C64.0781 9.89583 69.6688 6.25 75.8342 3.75C81.9995 1.25 88.3217 0 94.8005 0C101.279 0 107.602 1.25 113.767 3.75C119.932 6.25 125.418 9.89583 130.225 14.6875L133.674 18.125L137.122 14.6875C142.138 9.89583 147.729 6.25 153.894 3.75C160.06 1.25 166.382 0 172.861 0C179.339 0 185.662 1.25 191.827 3.75C197.992 6.25 203.478 9.89583 208.285 14.6875L261.266 67.5C266.073 72.2917 269.73 77.8125 272.238 84.0625C274.746 90.3125 276 96.6667 276 103.125C276 109.583 274.746 115.885 272.238 122.031C269.73 128.177 266.073 133.646 261.266 138.438L158.44 240.625C155.514 243.542 152.118 245.833 148.251 247.5C144.385 249.167 140.362 250 136.182 250Z" fill="#1E1E1E"/>
</svg>
