<svg width="250" height="218" viewBox="0 0 250 218" fill="none" xmlns="http://www.w3.org/2000/svg">
<path d="M25.6364 218C18.5864 218 12.5511 215.489 7.53068 210.466C2.51023 205.444 0 199.406 0 192.353C0 185.3 2.51023 179.262 7.53068 174.24C12.5511 169.217 18.5864 166.706 25.6364 166.706C26.9182 166.706 28.0398 166.706 29.0011 166.706C29.9625 166.706 30.9773 166.92 32.0455 167.347L90.3682 109C89.9409 107.931 89.7273 106.916 89.7273 105.954C89.7273 104.993 89.7273 103.871 89.7273 102.588C89.7273 95.5353 92.2375 89.4976 97.258 84.475C102.278 79.4525 108.314 76.9412 115.364 76.9412C122.414 76.9412 128.449 79.4525 133.469 84.475C138.49 89.4976 141 95.5353 141 102.588C141 103.016 140.786 105.153 140.359 109L173.045 141.7C174.114 141.273 175.128 141.059 176.09 141.059C177.051 141.059 178.173 141.059 179.455 141.059C180.736 141.059 181.858 141.059 182.819 141.059C183.781 141.059 184.795 141.273 185.864 141.7L231.368 96.1765C230.941 95.1078 230.727 94.0926 230.727 93.1309C230.727 92.1691 230.727 91.0471 230.727 89.7647C230.727 82.7118 233.238 76.674 238.258 71.6515C243.278 66.6289 249.314 64.1176 256.364 64.1176C263.414 64.1176 269.449 66.6289 274.469 71.6515C279.49 76.674 282 82.7118 282 89.7647C282 96.8176 279.49 102.855 274.469 107.878C269.449 112.9 263.414 115.412 256.364 115.412C255.082 115.412 253.96 115.412 252.999 115.412C252.037 115.412 251.023 115.198 249.955 114.771L204.45 160.294C204.877 161.363 205.091 162.378 205.091 163.34C205.091 164.301 205.091 165.424 205.091 166.706C205.091 173.759 202.581 179.797 197.56 184.819C192.54 189.842 186.505 192.353 179.455 192.353C172.405 192.353 166.369 189.842 161.349 184.819C156.328 179.797 153.818 173.759 153.818 166.706C153.818 165.424 153.818 164.301 153.818 163.34C153.818 162.378 154.032 161.363 154.459 160.294L121.773 127.594C120.705 128.022 119.69 128.235 118.728 128.235C117.767 128.235 116.645 128.235 115.364 128.235C114.936 128.235 112.8 128.022 108.955 127.594L50.6318 185.941C51.0591 187.01 51.2727 188.025 51.2727 188.987C51.2727 189.949 51.2727 191.071 51.2727 192.353C51.2727 199.406 48.7625 205.444 43.742 210.466C38.7216 215.489 32.6864 218 25.6364 218ZM38.4545 89.4441L30.4432 72.1324L13.1386 64.1176L30.4432 56.1029L38.4545 38.7912L46.4659 56.1029L63.7705 64.1176L46.4659 72.1324L38.4545 89.4441ZM179.455 76.9412L167.277 50.6529L141 38.4706L167.277 26.2882L179.455 0L191.632 26.2882L217.909 38.4706L191.632 50.6529L179.455 76.9412Z" fill="#1E1E1E"/>
</svg>
