<svg width="327" height="327" viewBox="0 0 327 327" fill="none" xmlns="http://www.w3.org/2000/svg">
<path d="M289.636 101.727L269.523 57.4773L225.273 37.3636L269.523 17.25L289.636 -27L309.75 17.25L354 37.3636L309.75 57.4773L289.636 101.727ZM289.636 327L269.523 282.75L225.273 262.636L269.523 242.523L289.636 198.273L309.75 242.523L354 262.636L309.75 282.75L289.636 327ZM128.727 278.727L88.5 190.227L0 150L88.5 109.773L128.727 21.2727L168.955 109.773L257.455 150L168.955 190.227L128.727 278.727ZM128.727 200.686L144.818 166.091L179.414 150L144.818 133.909L128.727 99.3136L112.636 133.909L78.0409 150L112.636 166.091L128.727 200.686Z" fill="#E6E6E6"/>
</svg>
