<svg width="50" height="50" viewBox="0 0 50 50" fill="none" xmlns="http://www.w3.org/2000/svg">
<path d="M23.4375 20.1566V34.3754C23.4375 34.7898 23.6021 35.1872 23.8951 35.4802C24.1882 35.7732 24.5856 35.9379 25 35.9379C25.4144 35.9379 25.8118 35.7732 26.1049 35.4802C26.3979 35.1872 26.5625 34.7898 26.5625 34.3754V20.1566C28.4594 19.7694 30.145 18.6916 31.2925 17.1323C32.44 15.5729 32.9675 13.643 32.7729 11.7167C32.5783 9.79047 31.6755 8.00509 30.2393 6.70671C28.8032 5.40833 26.9361 4.68945 25 4.68945C23.0639 4.68945 21.1968 5.40833 19.7607 6.70671C18.3245 8.00509 17.4217 9.79047 17.2271 11.7167C17.0325 13.643 17.56 15.5729 18.7075 17.1323C19.855 18.6916 21.5406 19.7694 23.4375 20.1566ZM25 7.81286C25.9271 7.81286 26.8334 8.08778 27.6042 8.60285C28.3751 9.11791 28.9759 9.85 29.3307 10.7065C29.6855 11.5631 29.7783 12.5056 29.5974 13.4148C29.4166 14.3241 28.9701 15.1594 28.3146 15.8149C27.659 16.4705 26.8238 16.9169 25.9145 17.0978C25.0052 17.2787 24.0627 17.1858 23.2062 16.831C22.3496 16.4763 21.6176 15.8755 21.1025 15.1046C20.5874 14.3337 20.3125 13.4275 20.3125 12.5004C20.3125 11.2572 20.8064 10.0649 21.6854 9.1858C22.5645 8.30672 23.7568 7.81286 25 7.81286ZM46.875 34.3754C46.875 40.4652 35.6035 43.7504 25 43.7504C14.3965 43.7504 3.125 40.4652 3.125 34.3754C3.125 32.8636 3.86914 30.639 7.42188 28.6312C9.81641 27.2757 13.1094 26.2347 16.9473 25.6195C17.1503 25.5874 17.3576 25.5957 17.5574 25.6437C17.7573 25.6918 17.9457 25.7788 18.1119 25.8997C18.2781 26.0205 18.4189 26.173 18.5262 26.3483C18.6335 26.5235 18.7052 26.7182 18.7373 26.9213C18.7694 27.1243 18.7611 27.3316 18.7131 27.5314C18.665 27.7313 18.578 27.9197 18.4572 28.0859C18.3363 28.2521 18.1838 28.3929 18.0086 28.5002C17.8333 28.6075 17.6386 28.6792 17.4355 28.7113C14.0098 29.2621 10.9902 30.2015 8.95508 31.3578C7.23633 32.3246 6.25 33.4261 6.25 34.3754C6.25 36.9847 13.3828 40.6254 25 40.6254C36.6172 40.6254 43.75 36.9847 43.75 34.3754C43.75 33.4261 42.7637 32.3246 41.0449 31.35C39.002 30.1937 35.9902 29.2543 32.5645 28.7035C32.3571 28.6764 32.1574 28.608 31.977 28.5023C31.7966 28.3966 31.6392 28.2558 31.5142 28.0881C31.3892 27.9205 31.2992 27.7295 31.2493 27.5265C31.1995 27.3234 31.191 27.1124 31.2242 26.906C31.2574 26.6996 31.3317 26.5019 31.4427 26.3247C31.5537 26.1475 31.6991 25.9944 31.8703 25.8744C32.0416 25.7545 32.2351 25.6701 32.4396 25.6263C32.644 25.5825 32.8552 25.5802 33.0605 25.6195C36.8984 26.2347 40.1914 27.2757 42.5859 28.6312C46.1309 30.639 46.875 32.8636 46.875 34.3754Z" fill="#F26E21"/>
</svg>
