<svg width="278" height="289" viewBox="0 0 278 289" fill="none" xmlns="http://www.w3.org/2000/svg">
<path d="M151.415 218.756C126.439 217.455 105.366 207.829 88.1951 189.878C71.0244 171.927 62.439 150.333 62.439 125.098C62.439 99.0813 71.5447 76.9675 89.7561 58.7561C107.967 40.5447 130.081 31.439 156.098 31.439C181.333 31.439 202.927 40.0244 220.878 57.1951C238.829 74.3659 248.455 95.439 249.756 120.415L216.976 110.659C213.593 96.6098 206.309 85.0976 195.122 76.122C183.935 67.1463 170.927 62.6585 156.098 62.6585C138.927 62.6585 124.228 68.7724 112 81C99.7724 93.2276 93.6585 107.927 93.6585 125.098C93.6585 139.927 98.1463 152.935 107.122 164.122C116.098 175.309 127.61 182.593 141.659 185.976L151.415 218.756ZM170.146 280.415C167.805 280.935 165.463 281.195 163.122 281.195C160.78 281.195 158.439 281.195 156.098 281.195C134.504 281.195 114.211 277.098 95.2195 268.902C76.2276 260.707 59.7073 249.585 45.6585 235.537C31.6098 221.488 20.4878 204.967 12.2927 185.976C4.09756 166.984 0 146.691 0 125.098C0 103.504 4.09756 83.2114 12.2927 64.2195C20.4878 45.2276 31.6098 28.7073 45.6585 14.6585C59.7073 0.609756 76.2276 -10.5122 95.2195 -18.7073C114.211 -26.9024 134.504 -31 156.098 -31C177.691 -31 197.984 -26.9024 216.976 -18.7073C235.967 -10.5122 252.488 0.609756 266.537 14.6585C280.585 28.7073 291.707 45.2276 299.902 64.2195C308.098 83.2114 312.195 103.504 312.195 125.098C312.195 127.439 312.195 129.78 312.195 132.122C312.195 134.463 311.935 136.805 311.415 139.146L280.976 129.78V125.098C280.976 90.2358 268.878 60.7073 244.683 36.5122C220.488 12.3171 190.959 0.219513 156.098 0.219513C121.236 0.219513 91.7073 12.3171 67.5122 36.5122C43.3171 60.7073 31.2195 90.2358 31.2195 125.098C31.2195 159.959 43.3171 189.488 67.5122 213.683C91.7073 237.878 121.236 249.976 156.098 249.976C156.878 249.976 157.659 249.976 158.439 249.976C159.22 249.976 160 249.976 160.78 249.976L170.146 280.415ZM289.171 289L222.439 222.268L202.927 281.195L156.098 125.098L312.195 171.927L253.268 191.439L320 258.171L289.171 289Z" fill="#E6E6E6"/>
</svg>
