<svg width="50" height="50" viewBox="0 0 50 50" fill="none" xmlns="http://www.w3.org/2000/svg">
<g clip-path="url(#clip0_2062_8698)">
<path d="M22.8989 30.8446C24.9931 29.4504 26.583 27.4194 27.4335 25.0517C28.284 22.6841 28.3501 20.1056 27.6218 17.6975C26.8935 15.2895 25.4097 13.1797 23.3896 11.6802C21.3696 10.1807 18.9206 9.37109 16.4048 9.37109C13.889 9.37109 11.44 10.1807 9.41997 11.6802C7.39991 13.1797 5.91604 15.2895 5.18778 17.6975C4.45952 20.1056 4.52554 22.6841 5.37608 25.0517C6.22661 27.4194 7.8165 29.4504 9.91065 30.8446C6.12255 32.2408 2.88742 34.8243 0.687994 38.2098C0.572399 38.3816 0.492108 38.5747 0.451785 38.7778C0.411463 38.9809 0.411914 39.19 0.453113 39.3929C0.494312 39.5959 0.575437 39.7886 0.691772 39.9599C0.808107 40.1312 0.957332 40.2777 1.13077 40.3908C1.30421 40.5039 1.49841 40.5814 1.70207 40.6189C1.90574 40.6563 2.1148 40.6528 2.31713 40.6087C2.51945 40.5646 2.71099 40.4808 2.88061 40.362C3.05023 40.2432 3.19455 40.0919 3.30518 39.9169C4.72391 37.7348 6.66525 35.9417 8.95291 34.7004C11.2406 33.4591 13.8021 32.809 16.4048 32.809C19.0075 32.809 21.569 33.4591 23.8567 34.7004C26.1443 35.9417 28.0857 37.7348 29.5044 39.9169C29.7336 40.2575 30.0876 40.4942 30.4899 40.5759C30.8922 40.6576 31.3105 40.5776 31.6544 40.3533C31.9982 40.1291 32.24 39.7785 32.3274 39.3774C32.4149 38.9763 32.3409 38.5569 32.1216 38.2098C29.9222 34.8243 26.687 32.2408 22.8989 30.8446ZM7.81104 21.0946C7.81104 19.3949 8.31505 17.7334 9.25935 16.3202C10.2036 14.9069 11.5458 13.8054 13.1161 13.155C14.6864 12.5046 16.4143 12.3344 18.0813 12.666C19.7484 12.9976 21.2796 13.816 22.4815 15.0179C23.6833 16.2198 24.5018 17.751 24.8334 19.418C25.165 21.0851 24.9948 22.813 24.3444 24.3833C23.6939 25.9536 22.5925 27.2957 21.1792 28.24C19.766 29.1843 18.1045 29.6883 16.4048 29.6883C14.1264 29.6858 11.942 28.7795 10.3309 27.1684C8.71986 25.5574 7.81363 23.373 7.81104 21.0946ZM48.854 40.3719C48.5069 40.5983 48.0842 40.6775 47.6787 40.5921C47.2733 40.5068 46.9183 40.2639 46.6919 39.9169C45.2749 37.7335 43.3338 35.9396 41.0457 34.6988C38.7575 33.4581 36.1952 32.8099 33.5923 32.8133C33.1779 32.8133 32.7805 32.6487 32.4874 32.3557C32.1944 32.0627 32.0298 31.6652 32.0298 31.2508C32.0298 30.8364 32.1944 30.439 32.4874 30.146C32.7805 29.853 33.1779 29.6883 33.5923 29.6883C34.8579 29.6872 36.1075 29.4065 37.252 28.8663C38.3965 28.3262 39.4076 27.5399 40.213 26.5637C41.0184 25.5875 41.5983 24.4454 41.9112 23.2192C42.2241 21.9929 42.2622 20.7126 42.023 19.4699C41.7837 18.2271 41.2729 17.0526 40.5271 16.0301C39.7813 15.0077 38.8188 14.1626 37.7085 13.5552C36.5982 12.9478 35.3675 12.5932 34.1042 12.5166C32.841 12.44 31.5764 12.6434 30.4009 13.1122C30.2092 13.195 30.0029 13.2386 29.7941 13.2404C29.5853 13.2422 29.3782 13.2021 29.1852 13.1225C28.9922 13.0428 28.817 12.9254 28.6702 12.7769C28.5233 12.6285 28.4077 12.4521 28.3301 12.2583C28.2526 12.0644 28.2147 11.8569 28.2187 11.6482C28.2226 11.4394 28.2684 11.2335 28.3533 11.0427C28.4382 10.852 28.5605 10.6801 28.7129 10.5374C28.8653 10.3947 29.0448 10.284 29.2407 10.2118C31.9311 9.13884 34.9235 9.10023 37.6406 10.1034C40.3577 11.1066 42.6071 13.0805 43.9548 15.6442C45.3025 18.208 45.6529 21.1801 44.9386 23.987C44.2242 26.794 42.4957 29.2369 40.0864 30.8446C43.8745 32.2408 47.1097 34.8243 49.3091 38.2098C49.5354 38.5569 49.6146 38.9797 49.5293 39.3851C49.4439 39.7906 49.201 40.1455 48.854 40.3719Z" fill="#F26E21"/>
</g>
<defs>
<clipPath id="clip0_2062_8698">
<rect width="50" height="50" fill="white"/>
</clipPath>
</defs>
</svg>
