<svg width="673" height="613" viewBox="0 0 673 613" fill="none" xmlns="http://www.w3.org/2000/svg">
<mask id="mask0_2117_2345" style="mask-type:alpha" maskUnits="userSpaceOnUse" x="40" y="0" width="633" height="613">
<mask id="path-1-outside-1_2117_2345" maskUnits="userSpaceOnUse" x="39.543" y="-0.871094" width="633" height="614" fill="black">
<rect fill="white" x="39.543" y="-0.871094" width="633" height="614"/>
<path d="M356.447 152.839L376.307 0.128906L376.152 154.045L415.562 4.95293L395.702 157.663L454.042 14.4502L414.632 163.693L490.97 28.6208L432.475 171.834L525.725 47.1631L449.232 182.236L557.688 69.9265L464.593 194.447L586.703 96.3078L478.092 208.466L611.994 126.006L489.728 224.144L633.251 158.568L499.348 241.028L650.163 193.391L506.641 258.968L662.42 230.024L511.606 277.661L669.868 267.862L514.088 296.655L672.351 306.303L514.088 315.952L669.868 344.745L511.606 335.097L662.42 382.583L506.641 353.79L650.163 419.367L499.348 371.729L633.251 454.19L489.728 388.613L611.994 486.752L478.092 404.141L586.703 516.45L464.593 418.16L557.688 542.831L449.232 430.522L525.725 565.444L432.475 440.773L490.97 583.986L414.632 449.064L454.042 598.157L395.702 454.944L415.562 607.805L376.152 458.562L376.307 612.629L356.447 459.768L336.586 612.629L336.586 458.562L297.176 607.805L317.192 454.944L258.852 598.157L298.262 449.064L221.924 583.986L280.419 440.773L187.168 565.444L263.662 430.522L155.05 542.831L248.301 418.16L126.191 516.45L234.802 404.141L100.9 486.752L223.165 388.613L79.6431 454.19L213.545 371.729L62.7307 419.367L206.253 353.79L50.4731 382.583L201.288 335.097L43.0255 344.745L198.805 315.952L40.543 306.303L198.805 296.655L43.0255 267.862L201.288 277.661L50.4731 230.024L206.253 258.968L62.7307 193.391L213.545 241.028L79.6431 158.568L223.165 224.144L100.9 126.006L234.802 208.466L126.191 96.3078L248.301 194.447L155.05 69.9265L263.662 182.236L187.168 47.1631L280.419 171.834L221.924 28.6208L298.262 163.693L258.852 14.4502L317.192 157.663L297.176 4.95293L336.586 154.045V0.128906L356.447 152.839Z"/>
</mask>
<path d="M356.447 152.839L376.307 0.128906L376.152 154.045L415.562 4.95293L395.702 157.663L454.042 14.4502L414.632 163.693L490.97 28.6208L432.475 171.834L525.725 47.1631L449.232 182.236L557.688 69.9265L464.593 194.447L586.703 96.3078L478.092 208.466L611.994 126.006L489.728 224.144L633.251 158.568L499.348 241.028L650.163 193.391L506.641 258.968L662.42 230.024L511.606 277.661L669.868 267.862L514.088 296.655L672.351 306.303L514.088 315.952L669.868 344.745L511.606 335.097L662.42 382.583L506.641 353.79L650.163 419.367L499.348 371.729L633.251 454.19L489.728 388.613L611.994 486.752L478.092 404.141L586.703 516.45L464.593 418.16L557.688 542.831L449.232 430.522L525.725 565.444L432.475 440.773L490.97 583.986L414.632 449.064L454.042 598.157L395.702 454.944L415.562 607.805L376.152 458.562L376.307 612.629L356.447 459.768L336.586 612.629L336.586 458.562L297.176 607.805L317.192 454.944L258.852 598.157L298.262 449.064L221.924 583.986L280.419 440.773L187.168 565.444L263.662 430.522L155.05 542.831L248.301 418.16L126.191 516.45L234.802 404.141L100.9 486.752L223.165 388.613L79.6431 454.19L213.545 371.729L62.7307 419.367L206.253 353.79L50.4731 382.583L201.288 335.097L43.0255 344.745L198.805 315.952L40.543 306.303L198.805 296.655L43.0255 267.862L201.288 277.661L50.4731 230.024L206.253 258.968L62.7307 193.391L213.545 241.028L79.6431 158.568L223.165 224.144L100.9 126.006L234.802 208.466L126.191 96.3078L248.301 194.447L155.05 69.9265L263.662 182.236L187.168 47.1631L280.419 171.834L221.924 28.6208L298.262 163.693L258.852 14.4502L317.192 157.663L297.176 4.95293L336.586 154.045V0.128906L356.447 152.839Z" stroke="black" stroke-width="2" stroke-miterlimit="10" mask="url(#path-1-outside-1_2117_2345)"/>
</mask>
<g mask="url(#mask0_2117_2345)">
<rect x="-686.043" y="-8.62109" width="1358" height="630" rx="40" fill="black"/>
</g>
<path d="M93.0553 444.471L137.493 468.011L93.0553 491.739L68.7461 534.848L44.4369 491.739L-0.000402425 468.011L44.4369 444.471L68.7461 401.174L93.0553 444.471Z" fill="#DC3846"/>
<path d="M211.068 230.35L290.474 272.414L211.068 314.815L167.629 391.847L124.19 314.815L44.7834 272.414L124.19 230.35L167.629 152.98L211.068 230.35Z" fill="black" stroke="black" stroke-miterlimit="10"/>
</svg>
