<svg width="290" height="225" viewBox="0 0 290 225" fill="none" xmlns="http://www.w3.org/2000/svg">
<path d="M0 196V170.275C0 158.569 5.98889 149.042 17.9667 141.692C29.9444 134.342 45.7333 130.667 65.3333 130.667C68.8722 130.667 72.275 130.735 75.5417 130.871C78.8083 131.007 81.9389 131.347 84.9333 131.892C81.1222 137.608 78.2639 143.597 76.3583 149.858C74.4528 156.119 73.5 162.653 73.5 169.458V196H0ZM98 196V169.458C98 160.747 100.382 152.785 105.146 145.571C109.91 138.357 116.647 132.028 125.358 126.583C134.069 121.139 144.482 117.056 156.596 114.333C168.71 111.611 181.844 110.25 196 110.25C210.428 110.25 223.699 111.611 235.813 114.333C247.926 117.056 258.339 121.139 267.05 126.583C275.761 132.028 282.431 138.357 287.058 145.571C291.686 152.785 294 160.747 294 169.458V196H98ZM318.5 196V169.458C318.5 162.381 317.615 155.711 315.846 149.45C314.076 143.189 311.422 137.336 307.883 131.892C310.878 131.347 313.94 131.007 317.071 130.871C320.201 130.735 323.4 130.667 326.667 130.667C346.267 130.667 362.056 134.274 374.033 141.488C386.011 148.701 392 158.297 392 170.275V196H318.5ZM132.708 163.333H259.7C256.978 157.889 249.424 153.125 237.038 149.042C224.651 144.958 210.972 142.917 196 142.917C181.028 142.917 167.349 144.958 154.963 149.042C142.576 153.125 135.158 157.889 132.708 163.333ZM65.3333 114.333C56.35 114.333 48.6597 111.135 42.2625 104.738C35.8653 98.3403 32.6667 90.65 32.6667 81.6667C32.6667 72.4111 35.8653 64.6528 42.2625 58.3917C48.6597 52.1306 56.35 49 65.3333 49C74.5889 49 82.3472 52.1306 88.6083 58.3917C94.8695 64.6528 98 72.4111 98 81.6667C98 90.65 94.8695 98.3403 88.6083 104.738C82.3472 111.135 74.5889 114.333 65.3333 114.333ZM326.667 114.333C317.683 114.333 309.993 111.135 303.596 104.738C297.199 98.3403 294 90.65 294 81.6667C294 72.4111 297.199 64.6528 303.596 58.3917C309.993 52.1306 317.683 49 326.667 49C335.922 49 343.681 52.1306 349.942 58.3917C356.203 64.6528 359.333 72.4111 359.333 81.6667C359.333 90.65 356.203 98.3403 349.942 104.738C343.681 111.135 335.922 114.333 326.667 114.333ZM196 98C182.389 98 170.819 93.2361 161.292 83.7083C151.764 74.1806 147 62.6111 147 49C147 35.1167 151.764 23.4792 161.292 14.0875C170.819 4.69583 182.389 0 196 0C209.883 0 221.521 4.69583 230.913 14.0875C240.304 23.4792 245 35.1167 245 49C245 62.6111 240.304 74.1806 230.913 83.7083C221.521 93.2361 209.883 98 196 98ZM196 65.3333C200.628 65.3333 204.507 63.7681 207.637 60.6375C210.768 57.5069 212.333 53.6278 212.333 49C212.333 44.3722 210.768 40.4931 207.637 37.3625C204.507 34.2319 200.628 32.6667 196 32.6667C191.372 32.6667 187.493 34.2319 184.363 37.3625C181.232 40.4931 179.667 44.3722 179.667 49C179.667 53.6278 181.232 57.5069 184.363 60.6375C187.493 63.7681 191.372 65.3333 196 65.3333Z" fill="#E8414F"/>
</svg>
