<svg width="50" height="50" viewBox="0 0 50 50" fill="none" xmlns="http://www.w3.org/2000/svg">
<path d="M40.625 7.8125H9.375C8.1318 7.8125 6.93951 8.30636 6.06044 9.18544C5.18136 10.0645 4.6875 11.2568 4.6875 12.5V34.375C4.6875 35.6182 5.18136 36.8105 6.06044 37.6896C6.93951 38.5686 8.1318 39.0625 9.375 39.0625H40.625C41.8682 39.0625 43.0605 38.5686 43.9396 37.6896C44.8186 36.8105 45.3125 35.6182 45.3125 34.375V12.5C45.3125 11.2568 44.8186 10.0645 43.9396 9.18544C43.0605 8.30636 41.8682 7.8125 40.625 7.8125ZM42.1875 34.375C42.1875 34.7894 42.0229 35.1868 41.7299 35.4799C41.4368 35.7729 41.0394 35.9375 40.625 35.9375H9.375C8.9606 35.9375 8.56317 35.7729 8.27015 35.4799C7.97712 35.1868 7.8125 34.7894 7.8125 34.375V12.5C7.8125 12.0856 7.97712 11.6882 8.27015 11.3951C8.56317 11.1021 8.9606 10.9375 9.375 10.9375H40.625C41.0394 10.9375 41.4368 11.1021 41.7299 11.3951C42.0229 11.6882 42.1875 12.0856 42.1875 12.5V34.375ZM32.8125 43.75C32.8125 44.1644 32.6479 44.5618 32.3549 44.8549C32.0618 45.1479 31.6644 45.3125 31.25 45.3125H18.75C18.3356 45.3125 17.9382 45.1479 17.6451 44.8549C17.3521 44.5618 17.1875 44.1644 17.1875 43.75C17.1875 43.3356 17.3521 42.9382 17.6451 42.6451C17.9382 42.3521 18.3356 42.1875 18.75 42.1875H31.25C31.6644 42.1875 32.0618 42.3521 32.3549 42.6451C32.6479 42.9382 32.8125 43.3356 32.8125 43.75ZM32.1172 22.1367L22.7422 15.8867C22.5068 15.7297 22.2332 15.6395 21.9506 15.6258C21.668 15.6121 21.387 15.6754 21.1375 15.809C20.8881 15.9425 20.6796 16.1413 20.5343 16.3841C20.389 16.6269 20.3123 16.9046 20.3125 17.1875V29.6875C20.3123 29.9704 20.389 30.2481 20.5343 30.4909C20.6796 30.7337 20.8881 30.9325 21.1375 31.066C21.387 31.1996 21.668 31.2629 21.9506 31.2492C22.2332 31.2355 22.5068 31.1453 22.7422 30.9883L32.1172 24.7383C32.3315 24.5956 32.5073 24.4023 32.6288 24.1753C32.7504 23.9484 32.814 23.6949 32.814 23.4375C32.814 23.1801 32.7504 22.9266 32.6288 22.6997C32.5073 22.4727 32.3315 22.2793 32.1172 22.1367ZM23.4375 26.7676V20.1172L28.4336 23.4375L23.4375 26.7676Z" fill="#F26E21"/>
</svg>
