<svg width="278" height="282" viewBox="0 0 278 282" fill="none" xmlns="http://www.w3.org/2000/svg">
<path d="M14.1 70.5V14.1L70.5 42.3L14.1 70.5ZM225.6 70.5V14.1L282 42.3L225.6 70.5ZM126.9 56.4V0L183.3 28.2L126.9 56.4ZM126.9 282C109.04 281.53 92.4138 280.061 77.0213 277.594C61.6288 275.126 48.2337 272.013 36.8363 268.253C25.4387 264.492 16.45 260.145 9.87 255.21C3.29 250.275 0 245.105 0 239.7V112.8C0 106.925 3.70125 101.461 11.1038 96.4088C18.5063 91.3563 28.5525 86.8913 41.2425 83.0137C53.9325 79.1362 68.855 76.0813 86.01 73.8488C103.165 71.6163 121.495 70.5 141 70.5C160.505 70.5 178.835 71.6163 195.99 73.8488C213.145 76.0813 228.068 79.1362 240.758 83.0137C253.448 86.8913 263.494 91.3563 270.896 96.4088C278.299 101.461 282 106.925 282 112.8V239.7C282 245.105 278.71 250.275 272.13 255.21C265.55 260.145 256.561 264.492 245.164 268.253C233.766 272.013 220.371 275.126 204.979 277.594C189.586 280.061 172.96 281.53 155.1 282V225.6H126.9V282ZM141 126.9C163.795 126.9 183.476 125.549 200.044 122.846C216.611 120.144 229.83 117.03 239.7 113.505C239.7 112.33 230.77 109.569 212.91 105.221C195.05 100.874 171.08 98.7 141 98.7C110.92 98.7 86.95 100.874 69.09 105.221C51.23 109.569 42.3 112.33 42.3 113.505C52.17 117.03 65.3888 120.144 81.9563 122.846C98.5238 125.549 118.205 126.9 141 126.9ZM98.7 251.685V197.4H183.3V251.685C202.1 249.805 217.492 247.044 229.477 243.401C241.462 239.759 249.57 236.528 253.8 233.708V138.18C240.875 143.35 224.66 147.463 205.155 150.518C185.65 153.573 164.265 155.1 141 155.1C117.735 155.1 96.35 153.573 76.845 150.518C57.34 147.463 41.125 143.35 28.2 138.18V233.708C32.43 236.528 40.5375 239.759 52.5225 243.401C64.5075 247.044 79.9 249.805 98.7 251.685Z" fill="#E8414F"/>
</svg>
