<svg width="188" height="24" viewBox="0 0 188 24" fill="none" xmlns="http://www.w3.org/2000/svg">
<g clip-path="url(#clip0_2128_2090)">
<path d="M23.9013 0.0136719C17.2775 0.0136719 11.9082 5.383 11.9082 12.0068C11.9082 18.6306 17.2775 23.9999 23.9013 23.9999C30.5251 23.9999 35.8944 18.6306 35.8944 12.0068C35.8944 5.383 30.5251 0.0136719 23.9013 0.0136719ZM23.9013 17.9964C20.6319 17.9964 17.9806 15.3451 17.9806 12.0757C17.9806 8.80632 20.6319 6.15497 23.9013 6.15497C27.1707 6.15497 29.822 8.80632 29.822 12.0757C29.822 15.3451 27.1707 17.9964 23.9013 17.9964Z" fill="#F26E21"/>
<path d="M42.1673 0.445801C41.5723 0.445801 41.0898 0.928282 41.0898 1.52334V13.1121C41.0898 14.2907 40.6648 15.3039 39.8147 16.1517C39.0588 16.9053 38.2455 17.2086 37.6481 17.3281C37.1426 17.4291 36.7773 17.868 36.7773 18.3849V22.4148C36.7773 23.0581 37.3379 23.559 37.9767 23.4854C40.3224 23.2097 42.5143 22.1368 44.1616 20.4849C46.2179 18.424 47.2196 15.7611 47.2196 13.0983L47.2334 1.52564C47.2334 0.93058 46.7509 0.448098 46.1559 0.448098H42.1651L42.1673 0.445801Z" fill="#F26E21"/>
<path d="M60.7415 -3.81911e-05C54.035 -0.0574764 48.5875 5.38997 48.645 12.0965C48.7001 18.564 54.0672 23.931 60.5324 23.9839C67.2389 24.0413 72.6863 18.5939 72.6289 11.8874C72.5761 5.42213 67.209 0.0551025 60.7415 -3.81911e-05ZM58.5106 6.08382L66.1705 11.0764C66.8116 11.4945 66.8276 12.4296 66.2004 12.8684L58.5404 18.2286C57.8236 18.7294 56.838 18.2171 56.838 17.3417V6.98905C56.838 6.12977 57.7914 5.61283 58.5106 6.08382Z" fill="#F26E21"/>
<path d="M5.39001 0.445801C4.79495 0.445801 4.31246 0.928282 4.31246 1.52334V13.1121C4.31246 14.2907 3.88742 15.3039 3.03733 16.1517C2.28145 16.9053 1.46812 17.2086 0.870764 17.3281C0.365307 17.4291 0 17.868 0 18.3849V22.4148C0 23.0581 0.560597 23.559 1.19931 23.4854C3.54509 23.2097 5.73693 22.1368 7.38426 20.4849C9.44055 18.424 10.4423 15.7611 10.4423 13.0983L10.4561 1.52564C10.4561 0.93058 9.97358 0.448098 9.37852 0.448098H5.38771L5.39001 0.445801Z" fill="#F26E21"/>
<path d="M84.1104 20.3219H91.5587V22.5811H81.332V1.30566H84.1104V20.3219Z" fill="#0A0A0A"/>
<path d="M97.2979 1.30566V22.5811H94.5195V1.30566H97.2979Z" fill="#0A0A0A"/>
<path d="M123.61 1.45703V22.5788H120.832V6.82882L113.811 22.5788H111.857L104.806 6.79762V22.5788H102.027V1.45703H105.02L112.833 18.9159L120.647 1.45703H123.608H123.61Z" fill="#0A0A0A"/>
<path d="M131.087 1.30566V22.5811H128.309V1.30566H131.087Z" fill="#0A0A0A"/>
<path d="M148.913 1.30566V3.56489H143.113V22.5811H140.335V3.56266H134.504V1.30566H148.91H148.913Z" fill="#0A0A0A"/>
<path d="M155.108 3.5626V10.6745H162.862V12.9627H155.108V20.2884H163.778V22.5789H152.33V1.27441H163.778V3.5626H155.108Z" fill="#0A0A0A"/>
<path d="M180.643 2.60238C182.341 3.46685 183.644 4.70341 184.551 6.31205C185.456 7.92069 185.91 9.81229 185.91 11.9891C185.91 14.1659 185.458 16.053 184.551 17.6505C183.647 19.248 182.343 20.469 180.643 21.3134C178.943 22.1578 176.934 22.5811 174.614 22.5811H167.99V1.30566H174.614C176.934 1.30566 178.943 1.7379 180.643 2.60238ZM180.902 18.1095C182.345 16.6546 183.07 14.6137 183.07 11.9891C183.07 9.36445 182.341 7.27902 180.888 5.79292C179.433 4.30682 177.341 3.56489 174.616 3.56489H170.771V20.2929H174.616C177.364 20.2929 179.46 19.5666 180.904 18.1117L180.902 18.1095Z" fill="#0A0A0A"/>
</g>
<defs>
<clipPath id="clip0_2128_2090">
<rect width="187.538" height="24" fill="white"/>
</clipPath>
</defs>
</svg>
