<svg width="490" height="80" viewBox="0 0 490 80" fill="none" xmlns="http://www.w3.org/2000/svg">
<g clip-path="url(#clip0_2062_8670)">
<path d="M68.9128 5.44202C49.8167 5.44202 34.3359 20.9228 34.3359 40.0188C34.3359 59.1149 49.8167 74.5957 68.9128 74.5957C88.0089 74.5957 103.49 59.1149 103.49 40.0188C103.49 20.9228 88.0089 5.44202 68.9128 5.44202ZM68.9128 57.2859C59.4852 57.2859 51.8439 49.6433 51.8439 40.217C51.8439 30.7908 59.4865 23.1482 68.9128 23.1482C78.339 23.1482 85.9816 30.7908 85.9816 40.217C85.9816 49.6433 78.339 57.2859 68.9128 57.2859Z" fill="#F26E21"/>
<path d="M121.565 6.69019C119.85 6.69019 118.459 8.08139 118.459 9.79644V43.2308C118.459 46.6337 117.236 49.5534 114.781 52.0016C112.605 54.1726 110.254 55.0483 108.536 55.3928C107.078 55.6856 106.023 56.9524 106.023 58.4395C106.023 61.6105 106.023 66.7272 106.023 70.0653C106.023 71.9202 107.641 73.3684 109.483 73.1508C116.248 72.3555 122.564 69.2622 127.318 64.494C133.244 58.5509 136.133 50.8682 136.133 43.1854L136.173 9.80033C136.175 8.08269 134.783 6.69019 133.067 6.69019H121.562H121.565Z" fill="#F26E21"/>
<path d="M175.127 5.3985C155.793 5.23399 140.087 20.9401 140.251 40.2746C140.409 58.9186 155.884 74.3928 174.528 74.5509C193.862 74.7154 209.568 59.0092 209.404 39.6748C209.246 21.0321 193.771 5.55783 175.127 5.3985ZM168.691 22.9376L190.774 37.3341C192.625 38.5414 192.669 41.2357 190.859 42.5026L168.776 57.9574C166.709 59.4043 163.868 57.925 163.868 55.4017V25.549C163.868 23.0723 166.616 21.5826 168.691 22.9363V22.9376Z" fill="#F26E21"/>
<path d="M15.5403 6.69019C13.8253 6.69019 12.4341 8.08139 12.4341 9.79644V43.2308C12.4341 46.6337 11.2113 49.5534 8.75658 52.0016C6.58039 54.1726 4.22932 55.0483 2.51169 55.3928C1.05442 55.6843 0 56.9524 0 58.4395C0 61.6105 0 66.7272 0 70.0653C0 71.9202 1.61789 73.3684 3.45989 73.1508C10.2242 72.3555 16.5403 69.2622 21.2943 64.494C27.2205 58.5509 30.1092 50.8682 30.1092 43.1854L30.1493 9.80033C30.1519 8.08269 28.7594 6.69019 27.0431 6.69019H15.539H15.5403Z" fill="#F26E21"/>
</g>
<path d="M277.966 27.8966C276.305 23.5233 273.537 20.0357 269.662 17.4339C265.842 14.832 261.303 13.5311 256.044 13.5311C251.449 13.5311 247.297 14.6106 243.588 16.7696C239.879 18.9285 236.945 22.0009 234.786 25.9867C232.627 29.9725 231.548 34.6226 231.548 39.937C231.548 45.2513 232.627 49.9014 234.786 53.8872C236.945 57.873 239.879 60.9454 243.588 63.1044C247.297 65.208 251.449 66.2598 256.044 66.2598C260.473 66.2598 264.486 65.2633 268.084 63.2704C271.683 61.2775 274.561 58.4543 276.72 54.8006C278.879 51.0916 280.069 46.7737 280.291 41.8468H254.3V38.6914H284.11V41.1825C283.944 46.6076 282.643 51.4791 280.208 55.7971C277.772 60.115 274.45 63.4919 270.243 65.9276C266.036 68.3634 261.303 69.5813 256.044 69.5813C250.674 69.5813 245.83 68.3357 241.512 65.8446C237.194 63.2981 233.818 59.7829 231.382 55.2989C228.946 50.7595 227.728 45.6389 227.728 39.937C227.728 34.1797 228.946 29.0591 231.382 24.5751C233.818 20.0357 237.194 16.5205 241.512 14.0293C245.83 11.4829 250.674 10.2096 256.044 10.2096C262.299 10.2096 267.697 11.7873 272.236 14.9427C276.831 18.0428 280.18 22.3607 282.284 27.8966H277.966ZM299.149 7.55243V69H295.413V7.55243H299.149ZM332.693 69.6643C328.486 69.6643 324.694 68.7232 321.317 66.841C317.94 64.9589 315.283 62.274 313.345 58.7864C311.463 55.2435 310.522 51.1193 310.522 46.4139C310.522 41.7638 311.491 37.695 313.428 34.2074C315.366 30.6645 318.023 27.9796 321.4 26.1528C324.832 24.2706 328.652 23.3295 332.859 23.3295C337.066 23.3295 340.858 24.2706 344.235 26.1528C347.612 27.9796 350.242 30.6368 352.124 34.1244C354.061 37.6119 355.03 41.7084 355.03 46.4139C355.03 51.1193 354.061 55.2435 352.124 58.7864C350.186 62.274 347.501 64.9589 344.069 66.841C340.692 68.7232 336.9 69.6643 332.693 69.6643ZM332.693 66.3428C335.959 66.3428 339.004 65.6232 341.827 64.1838C344.706 62.6892 347.003 60.4472 348.719 57.4578C350.435 54.4685 351.293 50.7872 351.293 46.4139C351.293 42.0959 350.435 38.4423 348.719 35.4529C347.003 32.4636 344.733 30.2493 341.91 28.81C339.087 27.3153 336.042 26.568 332.776 26.568C329.51 26.568 326.465 27.3153 323.642 28.81C320.874 30.2493 318.632 32.4636 316.916 35.4529C315.2 38.4423 314.342 42.0959 314.342 46.4139C314.342 50.7872 315.172 54.4685 316.833 57.4578C318.549 60.4472 320.791 62.6892 323.559 64.1838C326.382 65.6232 329.427 66.3428 332.693 66.3428ZM370.104 35.7851C371.488 32.1315 373.841 29.1421 377.162 26.8171C380.484 24.492 384.497 23.3295 389.203 23.3295C393.41 23.3295 397.146 24.2706 400.413 26.1528C403.734 28.035 406.308 30.7198 408.135 34.2074C410.017 37.695 410.958 41.7638 410.958 46.4139C410.958 51.064 410.017 55.1605 408.135 58.7034C406.308 62.1909 403.734 64.9035 400.413 66.841C397.146 68.7232 393.41 69.6643 389.203 69.6643C384.497 69.6643 380.456 68.5018 377.079 66.1767C373.758 63.8517 371.433 60.8623 370.104 57.2087V69H366.367V7.55243H370.104V35.7851ZM407.139 46.4139C407.139 42.3174 406.364 38.7744 404.814 35.7851C403.264 32.7958 401.077 30.5261 398.254 28.976C395.486 27.3707 392.275 26.568 388.621 26.568C385.134 26.568 381.978 27.3983 379.155 29.0591C376.332 30.6645 374.117 32.9895 372.512 36.0342C370.907 39.0235 370.104 42.4834 370.104 46.4139C370.104 50.3997 370.907 53.9149 372.512 56.9596C374.117 59.9489 376.332 62.274 379.155 63.9347C381.978 65.5401 385.134 66.3428 388.621 66.3428C392.275 66.3428 395.486 65.5401 398.254 63.9347C401.077 62.3293 403.264 60.032 404.814 57.0426C406.364 54.0533 407.139 50.5104 407.139 46.4139ZM419.914 46.4139C419.914 41.7638 420.827 37.695 422.654 34.2074C424.536 30.7198 427.111 28.035 430.377 26.1528C433.698 24.2706 437.463 23.3295 441.67 23.3295C446.431 23.3295 450.472 24.492 453.793 26.8171C457.115 29.1421 459.44 32.1038 460.768 35.7021V23.9108H464.505V69H460.768V57.1257C459.44 60.7793 457.087 63.7963 453.71 66.1767C450.389 68.5018 446.375 69.6643 441.67 69.6643C437.463 69.6643 433.698 68.7232 430.377 66.841C427.111 64.9035 424.536 62.1909 422.654 58.7034C420.827 55.1605 419.914 51.064 419.914 46.4139ZM460.768 46.4139C460.768 42.4834 459.938 39.0235 458.277 36.0342C456.672 32.9895 454.457 30.6645 451.634 29.0591C448.811 27.3983 445.656 26.568 442.168 26.568C438.514 26.568 435.304 27.3707 432.536 28.976C429.768 30.5261 427.609 32.7958 426.059 35.7851C424.509 38.7744 423.734 42.3174 423.734 46.4139C423.734 50.5104 424.509 54.0533 426.059 57.0426C427.609 60.032 429.768 62.3293 432.536 63.9347C435.359 65.5401 438.57 66.3428 442.168 66.3428C445.656 66.3428 448.811 65.5401 451.634 63.9347C454.513 62.274 456.755 59.9489 458.36 56.9596C459.966 53.9149 460.768 50.3997 460.768 46.4139ZM481.847 7.55243V69H478.111V7.55243H481.847Z" fill="white"/>
<defs>
<clipPath id="clip0_2062_8670">
<rect width="209.405" height="69.1977" fill="white" transform="translate(0 5.40112)"/>
</clipPath>
</defs>
</svg>
