<svg width="352" height="82" viewBox="0 0 352 82" fill="none" xmlns="http://www.w3.org/2000/svg">
<path d="M22.6868 0.00305176C22.5121 0.00305176 22.3374 0.00305176 22.1582 0.00305176H0V46.1588H11.0791V31.4604H22.0148C34.2273 31.4604 38.6312 22.2992 38.6312 15.7676C38.6312 8.77905 33.6763 0.271846 22.6868 0.00753597V0.00305176ZM27.3415 19.6695C26.8442 20.1668 26.347 20.5207 25.7063 20.8746C24.7118 21.3002 23.5066 21.5152 22.0148 21.5152H11.0791V9.93932H22.1582C24.4295 9.93932 26.0602 10.5083 27.1982 11.785C28.2644 12.9946 28.69 14.6252 28.69 15.7631C28.69 16.8293 28.3361 18.46 27.3415 19.6695Z" fill="white"/>
<path d="M88.275 17.6147C88.3557 16.9786 88.3915 16.3604 88.3915 15.7601C88.3915 15.1598 88.3512 14.5236 88.275 13.892C87.4731 7.34245 82.4689 0.241911 72.4427 0C72.268 0 72.0932 0 71.914 0H49.832V46.1557H60.9066V31.4574H66.1617L75.8206 46.1557H88.2481L78.307 30.3912C84.7761 28.1333 87.6926 22.4798 88.275 17.6192V17.6147ZM77.0974 19.6665C76.6718 20.1637 76.1028 20.5176 75.4667 20.8715C74.5438 21.2971 73.2625 21.5121 71.8423 21.5121H60.9066V9.93627H71.914C74.2571 9.93627 75.8923 10.5052 76.9585 11.782C78.092 12.9915 78.4504 14.6222 78.4504 15.7601C78.4504 16.8263 78.092 18.4569 77.0974 19.6665Z" fill="white"/>
<path d="M99.582 0V46.1557H131.82V36.215H110.661V28.0482H128.626V18.1075H110.661V9.94075H131.82V0H99.582Z" fill="white"/>
<path d="M192.15 0.00448421L167.519 15.8362L143.027 0.00448421H143.018V46.1557H154.097V20.3788L167.375 29.0428L181.08 20.3116V46.1557H192.159V0H192.15V0.00448421Z" fill="white"/>
<path d="M203.361 0V46.1557H214.436V0H203.361Z" fill="white"/>
<path d="M225.646 0V46.1557H257.885V36.215H236.726V28.0482H254.69V18.1075H236.726V9.94075H257.885V0H225.646Z" fill="white"/>
<path d="M307.642 15.7601C307.642 8.77151 302.687 0.26431 291.697 0C291.522 0 291.348 0 291.169 0H269.082V46.1557H280.161V31.4574H285.416L295.071 46.1557H307.498L297.557 30.3912C304.873 27.8377 307.642 20.9477 307.642 15.7645V15.7601ZM294.717 20.8715C293.794 21.2971 292.517 21.5121 291.097 21.5121H280.161V9.93627H291.169C293.512 9.93627 295.142 10.5052 296.209 11.782C297.346 12.9915 297.7 14.6222 297.7 15.7601C297.7 16.8263 297.346 18.4569 296.352 19.6665C295.926 20.1637 295.357 20.5176 294.717 20.8715Z" fill="white"/>
<path d="M318.834 0V46.1557H351.072V36.215H329.913V28.0482H347.878V18.1075H329.913V9.94075H351.072V0H318.834Z" fill="white"/>
<path d="M81.5061 57.1743L81.4344 57.0444L81.3628 57.1743L68.3125 81.4103H75.0639L76.8245 78.0011H86.0086L87.7737 81.4103H94.5206L81.5061 57.1743ZM79.1855 73.4272L81.4344 69.1534L83.6476 73.4272H79.1855Z" fill="white"/>
<path d="M106.434 57.1932H97.1738V81.5635H106.434C113.145 81.5635 118.62 76.0892 118.62 69.3784C118.62 62.6676 113.145 57.1932 106.434 57.1932ZM111.084 74.0284C109.848 75.2649 108.195 75.9413 106.434 75.9413H103.02V62.7796H106.398C108.159 62.7796 109.848 63.456 111.084 64.6925C112.321 65.9647 112.997 67.6178 112.997 69.3784C112.997 71.1389 112.321 72.792 111.084 74.0284Z" fill="white"/>
<path d="M132.813 66.6975C129.476 66.3212 127.827 65.3849 127.827 63.8125C127.827 62.24 130.34 61.5994 132.513 61.5994C134.686 61.5994 136.115 62.2356 136.863 63.2883C137.401 63.9872 137.428 64.9593 137.428 65.1609H142.562C142.562 64.7846 142.49 62.4999 141.213 60.5108C140.595 59.5611 139.632 58.5128 138.153 57.7199C136.774 56.9807 134.941 56.4611 132.513 56.4611C130.085 56.4611 127.997 56.8866 126.402 57.7199C125.538 58.1679 124.798 58.7368 124.189 59.4267C123.405 60.3227 122.505 61.8637 122.505 64.1484C122.505 65.797 123.065 67.2619 124.189 68.4984C124.978 69.3585 126.03 70.0708 127.303 70.5994C128.651 71.1594 130.34 71.5715 132.253 71.7955C135.362 72.136 137.275 73.0723 137.275 74.573C137.275 76.0738 135.774 76.8577 132.401 76.8577C130.376 76.8577 128.992 76.2977 128.239 75.1733C127.702 74.3625 127.643 73.1619 127.639 72.9244L122.505 72.8483C122.505 73.1843 122.128 76.6696 124.978 79.2948C125.878 80.0832 126.855 80.7955 128.051 81.2838C129.328 81.7721 130.788 81.9961 132.401 81.9961C134.466 81.9961 136.191 81.7721 137.616 81.2838C139 80.7955 140.125 80.0832 140.949 79.1469C142.562 77.346 142.562 75.3615 142.562 74.573C142.562 72.9603 142.002 71.4595 140.913 70.1873C139.264 68.2744 136.527 67.1096 132.813 66.6975Z" fill="white"/>
<path d="M179.73 57.0444L179.663 57.1743L173.36 69.2296L167.052 57.1743L166.985 57.0444H160.238L160.31 57.1743L165.824 67.4287L164.884 69.2296L158.58 57.1743L158.513 57.0444H151.762L151.833 57.1743L164.884 81.4103L169.122 73.5392L173.36 81.4103L186.41 57.1743L186.482 57.0444H179.73Z" fill="white"/>
<path d="M199.232 56.6879C199.017 56.6744 198.802 56.6699 198.587 56.6699C198.372 56.6699 198.153 56.6699 197.942 56.6879C191.303 57.0238 186.025 62.5072 186.025 69.2269C186.025 74.7058 189.529 79.3603 194.416 81.0761C195.72 81.5375 197.122 81.7884 198.587 81.7884C200.052 81.7884 201.455 81.5375 202.763 81.0761C207.646 79.3558 211.145 74.7013 211.145 69.2269C211.145 62.5072 205.867 57.0238 199.232 56.6879ZM203.757 74.4011C202.373 75.754 200.536 76.538 198.587 76.538C196.639 76.538 194.797 75.754 193.413 74.4011C192.024 73.0168 191.276 71.1801 191.276 69.2269C191.276 67.2737 192.024 65.4415 193.413 64.0527C194.797 62.6684 196.634 61.9158 198.587 61.9158C200.541 61.9158 202.373 62.6684 203.757 64.0527C205.146 65.4415 205.894 67.2782 205.894 69.2269C205.894 71.1756 205.146 73.0168 203.757 74.4011Z" fill="white"/>
<path d="M235.444 65.3635C235.444 61.9902 233.248 57.9404 228.424 57.1743C227.895 57.0892 227.335 57.0444 226.744 57.0444H215.082V81.4103H220.933V73.6512H223.706L228.804 81.4103H235.368L230.117 73.0912C233.979 71.7383 235.444 68.1007 235.444 65.3635ZM228.621 68.0648C228.132 68.2888 227.456 68.4008 226.708 68.4008H220.933V62.2903H226.744C227.98 62.2903 228.845 62.5905 229.405 63.2669C230.005 63.9031 230.193 64.7677 230.193 65.3635C230.193 65.9279 230.005 66.7926 229.481 67.4287C229.257 67.6885 228.957 67.8767 228.621 68.0648Z" fill="white"/>
<path d="M245.784 76.1644V57.0444H239.938V81.4103H257.522V76.1644H245.784Z" fill="white"/>
<path d="M270.604 57.1932H261.344V81.5635H270.604C277.315 81.5635 282.79 76.0892 282.79 69.3784C282.79 62.6676 277.315 57.1932 270.604 57.1932ZM275.254 74.0284C274.018 75.2649 272.365 75.9413 270.604 75.9413H267.19V62.7796H270.568C272.329 62.7796 274.018 63.456 275.254 64.6925C276.491 65.9647 277.167 67.6178 277.167 69.3784C277.167 71.1389 276.491 72.792 275.254 74.0284Z" fill="white"/>
</svg>
